solid OpenSCAD_Model
  facet normal 0 0 -1
    outer loop
      vertex 0 4 0
      vertex 13 6.5 0
      vertex 13 -6.5 0
    endloop
  endfacet
  facet normal -0 0 -1
    outer loop
      vertex 0 -4 0
      vertex -13 -6.5 0
      vertex -13 6.5 0
    endloop
  endfacet
  facet normal 0 0 -1
    outer loop
      vertex 13 -6.5 0
      vertex 0 -4 0
      vertex 0 4 0
    endloop
  endfacet
  facet normal 0 0 -1
    outer loop
      vertex 0 -4 0
      vertex -13 6.5 0
      vertex 0 4 0
    endloop
  endfacet
  facet normal 0 -0 1
    outer loop
      vertex 13 -6.5 1.56
      vertex 13 6.5 1.56
      vertex 0 4 1.56
    endloop
  endfacet
  facet normal 0 0 1
    outer loop
      vertex -13 6.5 1.56
      vertex -13 -6.5 1.56
      vertex 0 -4 1.56
    endloop
  endfacet
  facet normal 0 0 1
    outer loop
      vertex 0 4 1.56
      vertex 0 -4 1.56
      vertex 13 -6.5 1.56
    endloop
  endfacet
  facet normal 0 0 1
    outer loop
      vertex 0 4 1.56
      vertex -13 6.5 1.56
      vertex 0 -4 1.56
    endloop
  endfacet
  facet normal -0.188847 0.982006 0
    outer loop
      vertex 0 4 0
      vertex 13 6.5 1.56
      vertex 13 6.5 0
    endloop
  endfacet
  facet normal -0.188847 0.982006 0
    outer loop
      vertex 0 4 0
      vertex 0 4 1.56
      vertex 13 6.5 1.56
    endloop
  endfacet
  facet normal 0.188847 0.982006 0
    outer loop
      vertex -13 6.5 0
      vertex 0 4 1.56
      vertex 0 4 0
    endloop
  endfacet
  facet normal 0.188847 0.982006 -0
    outer loop
      vertex -13 6.5 0
      vertex -13 6.5 1.56
      vertex 0 4 1.56
    endloop
  endfacet
  facet normal -1 0 0
    outer loop
      vertex -13 -6.5 0
      vertex -13 6.5 1.56
      vertex -13 6.5 0
    endloop
  endfacet
  facet normal -1 0 0
    outer loop
      vertex -13 -6.5 0
      vertex -13 -6.5 1.56
      vertex -13 6.5 1.56
    endloop
  endfacet
  facet normal 0.188847 -0.982006 0
    outer loop
      vertex 0 -4 0
      vertex -13 -6.5 1.56
      vertex -13 -6.5 0
    endloop
  endfacet
  facet normal 0.188847 -0.982006 0
    outer loop
      vertex 0 -4 0
      vertex 0 -4 1.56
      vertex -13 -6.5 1.56
    endloop
  endfacet
  facet normal -0.188847 -0.982006 0
    outer loop
      vertex 13 -6.5 0
      vertex 0 -4 1.56
      vertex 0 -4 0
    endloop
  endfacet
  facet normal -0.188847 -0.982006 0
    outer loop
      vertex 13 -6.5 0
      vertex 13 -6.5 1.56
      vertex 0 -4 1.56
    endloop
  endfacet
  facet normal 1 0 0
    outer loop
      vertex 13 6.5 0
      vertex 13 -6.5 1.56
      vertex 13 -6.5 0
    endloop
  endfacet
  facet normal 1 0 -0
    outer loop
      vertex 13 6.5 0
      vertex 13 6.5 1.56
      vertex 13 -6.5 1.56
    endloop
  endfacet
endsolid OpenSCAD_Model
